<svg xmlns="http://www.w3.org/2000/svg" viewBox="0 0 512 512">
  <defs>
    <linearGradient id="g" x1="0%" y1="0%" x2="100%" y2="100%">
      <stop offset="0%" stop-color="#3b82f6"/>
      <stop offset="100%" stop-color="#8b5cf6"/>
    </linearGradient>
  </defs>
  <rect width="512" height="512" rx="120" fill="#090a0f" />
  <path fill="url(#g)" d="M416 160h-32v-32c0-17.67-14.33-32-32-32h-32V64c0-17.67-14.33-32-32-32h-64c-17.67 0-32 14.33-32 32v32h-32c-17.67 0-32 14.33-32 32v32H96c-17.67 0-32 14.33-32 32v64c0 17.67 14.33 32 32 32h32v32c0 17.67 14.33 32 32 32h32v32c0 17.67 14.33 32 32 32h64c17.67 0 32-14.33 32-32v-32h32c17.67 0 32-14.33 32-32v-32h32c17.67 0 32-14.33 32-32v-64c0-17.67-14.33-32-32-32zm-96 160H192V192h128v128z"/>
  <rect x="224" y="224" width="64" height="64" fill="#090a0f" />
</svg>
